<svg xmlns="http://www.w3.org/2000/svg" aria-hidden="true" style="position:absolute;width:0;height:0;overflow:hidden">
  <defs>
    <symbol id="icon-bx_bx-menu-alt-right" viewBox="0 0 40 32">
      <path d="M6.641 8h26.566v2.667H6.641V8zm6.642 6.667h19.925v2.667H13.283v-2.667zm8.302 6.666h11.623V24H21.585v-2.667z"/>
    </symbol>
    <symbol id="icon-ant-design_linkedin-filled" viewBox="0 0 32 32">
      <path d="M27.579 3.798H5.134a.975.975 0 0 0-.976.976v22.445c0 .54.436.976.976.976h22.445c.54 0 .976-.436.976-.976V4.774a.975.975 0 0 0-.976-.976zM11.395 24.587h-3.62V12.944h3.62v11.643zM9.587 11.351a2.096 2.096 0 0 1-1.939-1.296 2.095 2.095 0 0 1 .455-2.286 2.099 2.099 0 1 1 1.484 3.582zm15.361 13.236h-3.617v-5.663c0-1.351-.024-3.086-1.882-3.086-1.882 0-2.171 1.47-2.171 2.989v5.761h-3.614V12.945h3.47v1.592h.049c.482-.915 1.662-1.882 3.425-1.882 3.666 0 4.34 2.412 4.34 5.547v6.386z"/>
    </symbol>
    <symbol id="icon-ant-design_facebook-filled" viewBox="0 0 32 32">
      <path d="M27.589 3.798H5.144a.975.975 0 0 0-.976.976v22.445c0 .54.436.976.976.976h22.445c.54 0 .976-.436.976-.976V4.774a.975.975 0 0 0-.976-.976zm-2.818 7.12h-1.949c-1.528 0-1.824.726-1.824 1.793v2.351h3.647l-.476 3.681h-3.172v9.451h-3.803v-9.448h-3.181v-3.684h3.181v-2.714c0-3.15 1.924-4.867 4.736-4.867 1.348 0 2.504.101 2.842.146v3.29h-.003z"/>
    </symbol>
    <symbol id="icon-ant-design_twitter-outlined" viewBox="0 0 31 32">
      <path d="M28.301 8.138c-.933.402-1.949.692-2.995.805a5.185 5.185 0 0 0 2.287-2.867 10.262 10.262 0 0 1-3.3 1.256 5.18 5.18 0 0 0-3.8-1.643 5.2 5.2 0 0 0-5.2 5.203c0 .403.049.805.128 1.192A14.776 14.776 0 0 1 4.699 6.64a5.166 5.166 0 0 0-.708 2.626c0 1.805.918 3.397 2.318 4.334a5.246 5.246 0 0 1-2.351-.662v.064a5.201 5.201 0 0 0 4.169 5.105 5.499 5.499 0 0 1-1.369.177c-.338 0-.659-.034-.982-.079a5.211 5.211 0 0 0 4.861 3.608 10.42 10.42 0 0 1-6.456 2.223c-.436 0-.839-.015-1.256-.064a14.725 14.725 0 0 0 7.987 2.333c9.564 0 14.797-7.923 14.797-14.8 0-.226 0-.451-.015-.677a11.194 11.194 0 0 0 2.607-2.69z"/>
    </symbol>
    <symbol id="icon-ic_baseline-phone-android" viewBox="0 0 32 32">
      <path d="M21.333 1.335H10.666c-2.213 0-4 1.787-4 4v21.333c0 2.213 1.787 4 4 4h10.667c2.213 0 4-1.787 4-4V5.335c0-2.213-1.787-4-4-4zm-2.666 26.666h-5.333v-1.333h5.333v1.333zm4.333-4H9V5.334h14v18.667z"/>
    </symbol>
    <symbol id="icon-bx_bx-map" viewBox="0 0 31 32">
      <path d="M15.66 18.611c2.879 0 5.22-2.341 5.22-5.22s-2.341-5.22-5.22-5.22-5.22 2.341-5.22 5.22a5.225 5.225 0 0 0 5.22 5.22zm0-7.83c1.439 0 2.61 1.171 2.61 2.61s-1.171 2.61-2.61 2.61c-1.439 0-2.61-1.171-2.61-2.61s1.171-2.61 2.61-2.61z"/>
      <path d="M14.903 28.808a1.3 1.3 0 0 0 1.514 0c.397-.281 9.721-7.013 9.683-15.417 0-5.756-4.683-10.44-10.44-10.44S5.22 7.635 5.22 13.384c-.038 8.41 9.286 15.143 9.683 15.423zm.757-23.247c4.318 0 7.83 3.512 7.83 7.836.027 5.791-5.726 10.992-7.83 12.697-2.102-1.707-7.857-6.908-7.83-12.704 0-4.318 3.512-7.83 7.83-7.83z"/>
    </symbol>
    <symbol id="icon-logos_ibm" viewBox="0 0 79 32">
      <path d="M.471.472v2.123h15.205V.472H.471zm17.359 0v2.123h21.669S37.286.472 34.354.472H17.83zm25.92 0v2.123h13.109L56.081.472H43.75zm22.507 0-.778 2.123h12.99V.472H66.257zM.471 4.601v2.123h15.205V4.601H.471zm17.359.003v2.12h24.183s-.282-1.634-.775-2.12H17.83zm25.92 0v2.12h14.546l-.72-2.12H43.75zm20.951 0-.72 2.12h14.488v-2.12H64.701zM4.84 8.73v2.126h6.585V8.73H4.84zm17.36 0v2.126h6.585V8.73H22.2zm12.99 0v2.126h6.585s.418-1.123.418-2.126H35.19zm12.929 0v2.126h11.675l-.778-2.126H48.119zm15.148 0-.781 2.126h11.733V8.73H63.267zM4.84 12.861v2.123h6.585v-2.123H4.84zm17.36 0v2.123h16.82s1.407-1.089 1.855-2.123H22.2zm25.919 0v2.123h6.585v-1.182l.418 1.182h12.062l.449-1.182v1.182h6.585v-2.123H61.857l-.656 1.798-.659-1.798H48.12zM4.84 16.989v2.123h6.585v-2.123H4.84zm17.36 0v2.123h18.675c-.448-1.03-1.855-2.123-1.855-2.123H22.2zm25.919 0v2.123h6.585v-2.123h-6.585zm7.782 0 .796 2.123h9.045l.757-2.123H55.901zm11.732 0v2.123h6.585v-2.123h-6.585zM4.84 21.118v2.123h6.585v-2.123H4.84zm17.36 0v2.123h6.585v-2.123H22.2zm12.99 0v2.123h7.003c0-1.002-.418-2.123-.418-2.123H35.19zm12.929 0v2.123h6.585v-2.123h-6.585zm9.277 0 .772 2.123h6.063l.778-2.123h-7.613zm10.237 0v2.123h6.585v-2.123h-6.585zM.59 25.247v2.126h15.206v-2.126H.59zm17.24 0v2.126h23.408c.493-.487.775-2.126.775-2.126H17.83zm26.039 0v2.126h10.836v-2.126H43.869zm15.025 0 .793 2.126h3.085l.745-2.126h-4.623zm8.739 0v2.126h10.955v-2.126H67.633zM.59 29.378v2.123h15.206v-2.123H.59zm17.24 0v2.12h16.524c2.931 0 5.145-2.12 5.145-2.12H17.83zm26.039 0v2.123h10.836v-2.123H43.869zm16.529 0 .763 2.117.131.003.775-2.12h-1.669zm7.235 0v2.123h10.955v-2.123H67.633z"/>
    </symbol>
    <symbol id="icon-logos_airbnb" viewBox="0 0 30 32">
      <path d="M27.202 25.681a4.658 4.658 0 0 1-2.835 3.67 4.687 4.687 0 0 1-2.368.313c-.779-.094-1.558-.345-2.368-.815-1.122-.628-2.244-1.6-3.552-3.042 2.057-2.54 3.303-4.861 3.77-6.931a7.928 7.928 0 0 0 .156-2.666 5.104 5.104 0 0 0-.842-2.133c-.966-1.411-2.586-2.227-4.393-2.227s-3.428.847-4.394 2.227a5.116 5.116 0 0 0-.841 2.133 6.57 6.57 0 0 0 .156 2.666c.467 2.069 1.745 4.422 3.77 6.962-1.278 1.443-2.431 2.415-3.553 3.043-.81.471-1.589.721-2.368.815a4.957 4.957 0 0 1-2.368-.313 4.658 4.658 0 0 1-2.836-3.67 5.224 5.224 0 0 1 .281-2.446c.093-.314.249-.627.405-1.003.218-.502.468-1.035.717-1.568l.031-.062c2.15-4.673 4.456-9.44 6.855-14.082l.093-.189c.249-.47.498-.972.748-1.442.249-.502.53-.972.872-1.38.654-.753 1.527-1.16 2.493-1.16s1.838.408 2.493 1.161c.343.408.623.878.873 1.38.249.471.498.972.748 1.442l.094.189a417.403 417.403 0 0 1 6.824 14.113v.031c.249.502.467 1.067.717 1.568.156.377.312.69.405 1.003.249.815.343 1.6.218 2.415zm-12.433-1.474c-1.682-2.132-2.773-4.14-3.147-5.833-.156-.721-.187-1.349-.093-1.913.062-.502.249-.941.498-1.318.592-.846 1.589-1.38 2.742-1.38s2.181.502 2.742 1.38c.249.377.436.816.498 1.318.093.565.062 1.223-.093 1.913-.374 1.662-1.465 3.669-3.147 5.833zm14.053-1.631c-.156-.376-.312-.784-.467-1.129-.249-.564-.499-1.098-.717-1.6l-.031-.031a327.59 327.59 0 0 0-6.886-14.175l-.093-.189c-.249-.47-.499-.972-.748-1.474-.312-.565-.623-1.16-1.122-1.725C17.761.999 16.327.309 14.8.309c-1.558 0-2.96.69-3.989 1.882-.467.564-.81 1.16-1.122 1.725a64.913 64.913 0 0 1-.748 1.474l-.093.188c-2.399 4.704-4.736 9.472-6.886 14.176l-.031.063c-.218.502-.468 1.035-.717 1.599-.167.372-.323.748-.467 1.129-.405 1.16-.53 2.258-.374 3.387a6.658 6.658 0 0 0 4.051 5.206c.81.345 1.651.502 2.524.502a8.204 8.204 0 0 0 3.926-1.129c1.278-.721 2.493-1.756 3.864-3.261 1.371 1.505 2.617 2.54 3.864 3.261a8.192 8.192 0 0 0 3.116 1.066c.249.032.561.063.81.063.873 0 1.745-.157 2.524-.502 2.181-.878 3.708-2.885 4.051-5.206.249-1.098.125-2.195-.28-3.356z"/>
    </symbol>
    <symbol id="icon-logos_basecamp" viewBox="0 0 40 32">
      <path d="M19.872.001C9.427.001 1.244 13.121.469 24.202c3.278 5.616 11.182 7.727 19.403 7.727s16.125-2.111 19.401-7.727C38.499 13.121 30.316.001 19.872.001z"/>
      <path d="M36.544 21.563s-2.307-4.924-4.652-7.797c-2.347-2.874-5.212-6.003-6.906-6.003s-6.427 8.275-8.599 8.275c-2.172 0-3.301-3.751-5.971-3.751S3.5 21.333 3.5 21.333l-.288 1.533s1.475 6.454 16.901 6.454 16.66-6.348 16.66-6.348l-.229-1.408z"/>
      <path d="M16.629 19.569c-2.396 0-3.624-2.334-4.29-3.774-.599-1.298-.702-3.347-2.401-3.404a1.34 1.34 0 0 1 .478-.104c2.67 0 3.799 3.751 5.971 3.751s6.905-8.275 8.599-8.275c.319 0 .679.111 1.069.309-.288-.038-.658-.011-.943.271-.547.541-5.516 11.226-8.482 11.226z"/>
    </symbol>
    <symbol id="icon-logos_android-icon" viewBox="0 0 27 32">
      <path d="M8.388.514a.92.92 0 0 0-.436.113.923.923 0 0 0-.357 1.247l.992 1.791c-2.39 1.479-3.974 4.004-3.974 6.887v.536a2.494 2.494 0 0 0-1.888-.862 2.504 2.504 0 0 0-2.503 2.503v7.709a2.505 2.505 0 0 0 2.503 2.503c.754 0 1.429-.334 1.888-.862v1.08a2.655 2.655 0 0 0 2.647 2.647h.672v3.429c0 1.381 1.122 2.503 2.503 2.503s2.503-1.122 2.503-2.503v-3.429H14.1v3.429c0 1.381 1.122 2.503 2.503 2.503s2.503-1.122 2.503-2.503v-3.429h.672a2.655 2.655 0 0 0 2.647-2.647v-1.08a2.494 2.494 0 0 0 1.888.862 2.505 2.505 0 0 0 2.503-2.503v-7.709a2.504 2.504 0 0 0-2.503-2.503 2.49 2.49 0 0 0-1.888.862v-.536c0-2.882-1.587-5.406-3.977-6.884l.995-1.794a.923.923 0 0 0-.357-1.247.925.925 0 0 0-1.247.358l-1.04 1.879c-1.017-.375-2.124-.581-3.279-.581s-2.263.204-3.279.578L9.201.985A.92.92 0 0 0 8.39.514z"/>
      <path d="M2.725 10.879A1.84 1.84 0 0 0 .874 12.73v7.709c0 1.031.82 1.851 1.851 1.851s1.851-.82 1.851-1.851V12.73a1.84 1.84 0 0 0-1.851-1.851zm21.586 0a1.84 1.84 0 0 0-1.851 1.851v7.709c0 1.031.82 1.851 1.851 1.851s1.851-.82 1.851-1.851V12.73a1.84 1.84 0 0 0-1.851-1.851zM10.434 19.676a1.84 1.84 0 0 0-1.851 1.851v7.709c0 1.031.82 1.851 1.851 1.851s1.851-.82 1.851-1.851v-7.709a1.84 1.84 0 0 0-1.851-1.851zm6.168 0a1.84 1.84 0 0 0-1.851 1.851v7.709c0 1.031.82 1.851 1.851 1.851s1.851-.82 1.851-1.851v-7.709a1.84 1.84 0 0 0-1.851-1.851z"/>
      <path d="M8.393 1.166a.26.26 0 0 0-.125.034.255.255 0 0 0-.102.357L9.47 3.912c-2.508 1.305-4.203 3.785-4.206 6.632h16.507c-.003-2.847-1.698-5.327-4.206-6.632l1.304-2.355a.255.255 0 0 0-.102-.357.26.26 0 0 0-.357.102l-1.321 2.381c-1.08-.479-2.292-.748-3.571-.748s-2.491.269-3.571.748L8.626 1.302a.257.257 0 0 0-.232-.136zm-3.129 10.03V23.16a1.983 1.983 0 0 0 .583 1.412 1.995 1.995 0 0 0 1.412.583h12.516a1.983 1.983 0 0 0 1.412-.583 1.995 1.995 0 0 0 .583-1.412V11.197H5.263z"/>
      <path d="M9.708 6.146c-.377 0-.689.312-.689.689s.312.689.689.689c.377 0 .689-.312.689-.689s-.312-.689-.689-.689zm7.619 0c-.377 0-.689.312-.689.689s.312.689.689.689c.377 0 .689-.312.689-.689s-.312-.689-.689-.689z"/>
    </symbol>
    <symbol id="icon-logos_apiary" viewBox="0 0 31 32">
      <path d="M0 0h31.484v32H0V0z"/>
      <path d="M-125.935-3375.484H157.42v5746.839h-283.355v-5746.839z"/>
      <path d="M-125.935-152.797H157.42v317.702h-283.355v-317.702z"/>
      <path d="M15.705 4.912v8.901l7.723-4.46V.452l-7.723 4.46zM15.705 4.912 7.982.452v8.919l7.723 4.46V4.912z"/>
      <path d="m23.428.453-7.723 4.46L7.982.453.259 4.913l15.447 8.919 15.438-8.919L23.43.453z"/>
      <path d="M15.705 13.832.258 4.913v8.919l7.723 4.46v8.91l7.723 4.46 7.723-4.46v-8.91l7.714-4.46V4.913l-15.438 8.919z"/>
      <path d="M15.705 13.832v17.83l7.723-4.46v-8.91l7.714-4.46V4.913l-15.438 8.919z"/>
      <path d="M15.705 22.742v8.919l7.723-4.46-7.723-4.46zM15.705 31.68v-8.919l-7.723 4.46 7.723 4.46zM7.981 9.372l-7.723 4.46 7.723 4.46 7.723-4.46-7.723-4.46zM23.428 9.372l-7.723 4.46 7.723 4.46 7.714-4.46-7.714-4.46z"/>
    </symbol>
    <symbol id="icon-logos_apple-app-store" viewBox="0 0 32 32">
      <path d="M7.155.12h17.689a6.893 6.893 0 0 1 6.893 6.893v17.689a6.893 6.893 0 0 1-6.893 6.893H7.155a6.893 6.893 0 0 1-6.893-6.893V7.013A6.893 6.893 0 0 1 7.155.12z"/>
      <path d="m10.349 22.965.003.001-1.076 1.864a1.423 1.423 0 0 1-2.464-1.422l.869-1.505c.136-.195.471-.532 1.142-.469 0 0 1.578.171 1.693.992 0 0 .016.27-.166.54zm15.264-4.76h-3.356c-.229-.015-.328-.097-.368-.144l-.002-.004-3.592-6.222-.005.003-.215-.309c-.353-.54-.914.841-.914.841-.669 1.539.095 3.288.361 3.817l4.99 8.642a1.423 1.423 0 0 0 2.464-1.422l-1.248-2.161c-.024-.052-.066-.195.19-.195h1.695a1.423 1.423 0 1 0 0-2.846zm-6.518 1.933s.179.911-.514.911H6.175a1.423 1.423 0 1 1 0-2.846h3.189c.515-.03.637-.327.637-.327l.003.001 4.162-7.211a.318.318 0 0 0 .002-.292l-1.375-2.381a1.422 1.422 0 1 1 2.464-1.422l.638 1.104.637-1.102a1.423 1.423 0 0 1 2.464 1.422l-5.793 10.034c-.025.061-.033.157.155.174h3.463l.001.034s2.001.031 2.274 1.9z"/>
    </symbol>
    <symbol id="icon-Vector-9" viewBox="0 0 69 32">
      <path fill="#02e4c0" d="M53.516 0c-4.143 0-8.056 1.665-10.847 4.55L22.442 23.108c-1.841 1.903-4.287 2.944-6.905 2.944-5.38 0-9.782-4.491-9.782-10.052s4.402-10.052 9.782-10.052c2.618 0 5.064 1.041 7.02 3.063l3.251 2.974L30.21 8l-3.683-3.301c-1.441-1.495-3.154-2.68-5.04-3.486S17.578-.006 15.537.001C6.963.001 0 7.198 0 16.001s6.963 16 15.537 16c4.143 0 8.056-1.665 10.847-4.55L46.611 8.893c1.841-1.903 4.287-2.944 6.905-2.944 5.38 0 9.782 4.491 9.782 10.052s-4.402 10.052-9.782 10.052c-2.589 0-5.064-1.041-7.02-3.063l-3.338-3.004-4.316 3.985 3.683 3.331c1.445 1.488 3.159 2.666 5.045 3.467s3.907 1.21 5.946 1.202c8.574 0 15.537-7.167 15.537-15.97 0-8.922-6.963-16-15.537-16z" style="fill:var(--color1, #02e4c0)"/>
    </symbol>
    <symbol id="icon-Vector-8" viewBox="0 0 35 32">
      <path fill="#e5e5e5" d="M0 0h34.667v32H0V0z" style="fill:var(--color2, #e5e5e5)"/>
      <path fill="#181818" d="M-190.667-2768h732v14846h-732V-2768z" style="fill:var(--color3, #181818)"/>
      <path fill="#181818" d="M-190.667-986.667h732V898.666h-732V-986.667z" style="fill:var(--color3, #181818)"/>
      <path fill="#02e4c0" d="m9.528 18.145 5.031-5.031L3.555 2.127c-.853-.853-2.329-.622-2.862.48a7.14 7.14 0 0 0 1.387 8.107l7.449 7.431zm12.054-3.218c2.72 1.262 6.542.373 9.369-2.453 3.396-3.396 4.053-8.267 1.44-10.88-2.595-2.596-7.467-1.956-10.88 1.44-2.827 2.827-3.715 6.649-2.453 9.369L2.951 28.51a1.773 1.773 0 0 0 2.506 2.506l11.004-10.969 10.987 10.987a1.769 1.769 0 0 0 1.931.384 1.785 1.785 0 0 0 .959-.959 1.775 1.775 0 0 0-.384-1.931L18.967 17.541l2.613-2.613z" style="fill:var(--color1, #02e4c0)"/>
    </symbol>
    <symbol id="icon-Vector-7" viewBox="0 0 31 32">
      <path fill="#e5e5e5" d="M0 0h30.933v32H0V0z" style="fill:var(--color2, #e5e5e5)"/>
      <path fill="#181818" d="M-151.467-2445.867h585.6v11876.8h-585.6v-11876.8z" style="fill:var(--color3, #181818)"/>
      <path fill="#181818" d="M-151.467-1020.8h585.6V487.467h-585.6V-1020.8z" style="fill:var(--color3, #181818)"/>
      <path fill="#02e4c0" d="M12.853 14.288c1.578 2.624 1.346 5.712-.541 6.96-1.887 1.216-4.702.08-6.295-2.544-1.578-2.624-1.33-5.744.557-6.96s4.702-.08 6.279 2.544zM15.467 25.2c3.093 0 3.867-1.2 3.867-1.2s-.773 3.2-3.867 3.2c-3.093 0-3.867-3.152-3.867-3.2 0 0 .773 1.2 3.867 1.2zm8.893-13.456c1.887 1.216 2.134 4.336.557 6.96-1.593 2.624-4.408 3.76-6.295 2.544-1.887-1.248-2.119-4.336-.541-6.96s4.393-3.76 6.279-2.544zM15.467 28.8c3.867 0 12.373-8.224 12.373-14.4S22.287 3.2 15.467 3.2C8.646 3.2 3.094 8.224 3.094 14.4s8.507 14.4 12.373 14.4zm0-28.8c8.507 0 15.467 6.464 15.467 14.4 0 6.528-8.785 17.6-15.467 17.6S0 20.928 0 14.4C0 6.464 6.96 0 15.467 0z" style="fill:var(--color1, #02e4c0)"/>
    </symbol>
  </defs>
</svg>
